<svg width="114" height="28" viewBox="0 0 114 28" fill="none" xmlns="http://www.w3.org/2000/svg">
<path d="M10.632 0.199999L4.2 27.488H0.24L6.672 0.199999H10.632ZM20.259 23.168C19.027 23.168 17.923 22.968 16.947 22.568C15.971 22.168 15.187 21.576 14.595 20.792C14.019 20.008 13.715 19.064 13.683 17.96H18.051C18.115 18.584 18.331 19.064 18.699 19.4C19.067 19.72 19.547 19.88 20.139 19.88C20.747 19.88 21.227 19.744 21.579 19.472C21.931 19.184 22.107 18.792 22.107 18.296C22.107 17.88 21.963 17.536 21.675 17.264C21.403 16.992 21.059 16.768 20.643 16.592C20.243 16.416 19.667 16.216 18.915 15.992C17.827 15.656 16.939 15.32 16.251 14.984C15.563 14.648 14.971 14.152 14.475 13.496C13.979 12.84 13.731 11.984 13.731 10.928C13.731 9.36 14.299 8.136 15.435 7.256C16.571 6.36 18.051 5.912 19.875 5.912C21.731 5.912 23.227 6.36 24.363 7.256C25.499 8.136 26.107 9.368 26.187 10.952H21.747C21.715 10.408 21.515 9.984 21.147 9.68C20.779 9.36 20.307 9.2 19.731 9.2C19.235 9.2 18.835 9.336 18.531 9.608C18.227 9.864 18.075 10.24 18.075 10.736C18.075 11.28 18.331 11.704 18.843 12.008C19.355 12.312 20.155 12.64 21.243 12.992C22.331 13.36 23.211 13.712 23.883 14.048C24.571 14.384 25.163 14.872 25.659 15.512C26.155 16.152 26.403 16.976 26.403 17.984C26.403 18.944 26.155 19.816 25.659 20.6C25.179 21.384 24.475 22.008 23.547 22.472C22.619 22.936 21.523 23.168 20.259 23.168ZM38.6966 23.168C37.1126 23.168 35.6566 22.8 34.3286 22.064C33.0166 21.328 31.9686 20.304 31.1846 18.992C30.4166 17.664 30.0326 16.176 30.0326 14.528C30.0326 12.88 30.4166 11.4 31.1846 10.088C31.9686 8.776 33.0166 7.752 34.3286 7.016C35.6566 6.28 37.1126 5.912 38.6966 5.912C40.2806 5.912 41.7286 6.28 43.0406 7.016C44.3686 7.752 45.4086 8.776 46.1606 10.088C46.9286 11.4 47.3126 12.88 47.3126 14.528C47.3126 16.176 46.9286 17.664 46.1606 18.992C45.3926 20.304 44.3526 21.328 43.0406 22.064C41.7286 22.8 40.2806 23.168 38.6966 23.168ZM38.6966 19.424C40.0406 19.424 41.1126 18.976 41.9126 18.08C42.7286 17.184 43.1366 16 43.1366 14.528C43.1366 13.04 42.7286 11.856 41.9126 10.976C41.1126 10.08 40.0406 9.632 38.6966 9.632C37.3366 9.632 36.2486 10.072 35.4326 10.952C34.6326 11.832 34.2326 13.024 34.2326 14.528C34.2326 16.016 34.6326 17.208 35.4326 18.104C36.2486 18.984 37.3366 19.424 38.6966 19.424ZM61.8838 20.024H55.5958L54.5878 23H50.2918L56.3878 6.152H61.1398L67.2358 23H62.8918L61.8838 20.024ZM60.8278 16.856L58.7398 10.688L56.6758 16.856H60.8278ZM83.7311 11.576C83.7311 12.552 83.5071 13.448 83.0591 14.264C82.6111 15.064 81.9231 15.712 80.9951 16.208C80.0671 16.704 78.9151 16.952 77.5391 16.952H74.9951V23H70.8911V6.152H77.5391C78.8831 6.152 80.0191 6.384 80.9471 6.848C81.8751 7.312 82.5711 7.952 83.0351 8.768C83.4991 9.584 83.7311 10.52 83.7311 11.576ZM77.2271 13.688C78.0111 13.688 78.5951 13.504 78.9791 13.136C79.3631 12.768 79.5551 12.248 79.5551 11.576C79.5551 10.904 79.3631 10.384 78.9791 10.016C78.5951 9.648 78.0111 9.464 77.2271 9.464H74.9951V13.688H77.2271ZM100.508 11.576C100.508 12.552 100.284 13.448 99.8357 14.264C99.3877 15.064 98.6997 15.712 97.7717 16.208C96.8437 16.704 95.6917 16.952 94.3157 16.952H91.7717V23H87.6677V6.152H94.3157C95.6597 6.152 96.7957 6.384 97.7237 6.848C98.6517 7.312 99.3477 7.952 99.8117 8.768C100.276 9.584 100.508 10.52 100.508 11.576ZM94.0037 13.688C94.7877 13.688 95.3717 13.504 95.7557 13.136C96.1397 12.768 96.3317 12.248 96.3317 11.576C96.3317 10.904 96.1397 10.384 95.7557 10.016C95.3717 9.648 94.7877 9.464 94.0037 9.464H91.7717V13.688H94.0037ZM113.588 0.199999L107.156 27.488H103.196L109.628 0.199999H113.588Z" fill="#232323"/>
</svg>
