<svg width="126" height="21" viewBox="0 0 126 21" fill="none" xmlns="http://www.w3.org/2000/svg">
<path d="M6.77098 5.82945V8.31502H13.0563V13.0862H6.77098V15.9432H13.9134V21H0.428488V0.772605H13.9134V5.82945H6.77098ZM37.8453 21H31.5028L24.7889 10.8292V21H18.4464V0.772605H24.7889L31.5028 11.1149V0.772605H37.8453V21ZM58.7383 0.772605V5.80088H53.3672V21H47.0247V5.80088H41.7107V0.772605H58.7383ZM72.772 21L68.9723 13.7433H68.9437V21H62.6012V0.772605H72.0292C73.6672 0.772605 75.0672 1.06783 76.229 1.65827C77.3908 2.22966 78.2574 3.02009 78.8288 4.02956C79.4193 5.01998 79.7145 6.14372 79.7145 7.40079C79.7145 8.75309 79.3336 9.95302 78.5717 11.0006C77.8289 12.0481 76.7528 12.8005 75.3433 13.2576L79.7431 21H72.772ZM68.9437 9.51495H71.4578C72.0673 9.51495 72.5244 9.38163 72.8292 9.11498C73.1339 8.82928 73.2863 8.39121 73.2863 7.80077C73.2863 7.26747 73.1244 6.84844 72.8006 6.5437C72.4959 6.23895 72.0483 6.08658 71.4578 6.08658H68.9437V9.51495ZM96.8541 17.943H90.1117L89.1117 21H82.455L89.8545 0.772605H97.1684L104.539 21H97.8541L96.8541 17.943ZM95.3114 13.1719L93.4829 7.54364L91.6544 13.1719H95.3114ZM118.294 21L114.494 13.7433H114.466V21H108.123V0.772605H117.551C119.189 0.772605 120.589 1.06783 121.751 1.65827C122.913 2.22966 123.779 3.02009 124.351 4.02956C124.941 5.01998 125.236 6.14372 125.236 7.40079C125.236 8.75309 124.855 9.95302 124.094 11.0006C123.351 12.0481 122.275 12.8005 120.865 13.2576L125.265 21H118.294ZM114.466 9.51495H116.98C117.589 9.51495 118.046 9.38163 118.351 9.11498C118.656 8.82928 118.808 8.39121 118.808 7.80077C118.808 7.26747 118.646 6.84844 118.323 6.5437C118.018 6.23895 117.57 6.08658 116.98 6.08658H114.466V9.51495Z" fill="#232323"/>
</svg>
